<?xml version="1.0" encoding="utf-8"?>
<!-- Generator: Adobe Illustrator 27.0.1, SVG Export Plug-In . SVG Version: 6.00 Build 0)  -->
<svg version="1.1" id="Ebene_1" xmlns="http://www.w3.org/2000/svg" xmlns:xlink="http://www.w3.org/1999/xlink" x="0px" y="0px"
	 viewBox="0 0 588.2 313.7" style="enable-background:new 0 0 588.2 313.7;" xml:space="preserve">
<style type="text/css">
	.st0{fill:#95A322;}
	.st1{fill:#3C3C3B;}
</style>
<path class="st0" d="M422.6,205.5c-1.9-2.3-4-4.4-6.3-6.2c-37.5,3.9-85.8,10.7-119.8,16.5c-31.2,5.3-73.1,12.6-106.8,20.6
	C199.2,166,194.9,76,174.1,22c-3-7.8-7.6-17.5-13.9-22l0,0c-13.2,13.3-17.4,36.7-23.2,58c9.6,24.5,16.8,56.8,16.8,92.8
	c0,36,2.7,74.3-6.3,103.3c13.5-3.7,27.6-6.8,41.2-10.4c0,0,0,0,0,0C262.8,227.9,341,213.9,422.6,205.5L422.6,205.5z"/>
<g>
	<path class="st0" d="M110.2,265.2C110.2,265.2,110.2,265.2,110.2,265.2C110.2,265.2,110.2,265.2,110.2,265.2L110.2,265.2z"/>
	<path class="st0" d="M142.2,84.1c-3.3-13.1-10.7-37.6-19.7-43.5c-9.6,8.8-15.7,31.7-19.7,49.3c-8.3,35.9-8.8,80.5-7,123.6
		c0.7,17.3,1.4,34.8,9.2,46c-0.1-0.1-0.2-0.3-0.4-0.4c0,0-8.3,2.5-12.3,4c-31.1,11.3-61.4,24.4-90.9,39.3c-0.7,2.8-0.8,4.3-1.4,6.6
		c35.5-15.8,79-35.3,110.2-43.8c-0.2-0.1-0.3-0.3-0.4-0.4c0.2,0.1,0.3,0.3,0.5,0.4c11.3-3,21.8-6.8,33.1-9.9c6.1-15.4,7-34.7,7-55.1
		C150.3,157.4,150.9,118.7,142.2,84.1z"/>
</g>
<polygon class="st1" points="207.8,260.4 211.7,260.4 211.7,288.9 207.8,288.9 207.8,276.5 192.2,276.5 192.2,288.9 188.2,288.9 
	188.2,260.4 192.2,260.4 192.2,272.7 207.8,272.7 "/>
<path class="st1" d="M231.6,263.9c-5.8-0.2-10.7,4.3-10.9,10.1c0,0,0,0,0,0c0,0.3,0,0.5,0,0.8c0.1,6,5,10.8,11,10.7
	c2.8,0,5.5-1.2,7.5-3.1c4.2-4.3,4.1-11.2-0.1-15.4c-1.9-1.9-4.5-3-7.2-3.1H231.6 M231.5,260.1c4-0.1,7.8,1.4,10.7,4.2
	c2.8,2.7,4.4,6.5,4.3,10.5c0.1,3.9-1.5,7.7-4.3,10.4c-2.9,2.8-6.8,4.3-10.9,4.1c-3.9,0.1-7.7-1.4-10.4-4.1
	c-2.8-2.7-4.3-6.4-4.2-10.3c-0.1-4,1.4-7.8,4.2-10.6C223.7,261.5,227.5,260,231.5,260.1"/>
<polygon class="st1" points="246.3,260.4 269.4,260.4 269.4,264 259.8,264 259.8,288.9 255.8,288.9 255.8,264 246.3,264 "/>
<polygon class="st1" points="273.2,260.4 288.9,260.4 288.9,264.1 277.1,264.1 277.1,272.7 288.5,272.7 288.5,276.4 277.1,276.4 
	277.1,285.2 289.2,285.2 289.2,288.9 273.2,288.9 "/>
<polygon class="st1" points="293.5,260.4 297.4,260.4 297.4,285.2 309.9,285.2 309.9,288.9 293.5,288.9 "/>
<path class="st1" d="M333,264h-4.1v8.9h4.4c1.3,0.1,2.7-0.3,3.7-1.2c0.9-0.9,1.4-2.1,1.3-3.3C338.2,265.4,336.5,264,333,264
	 M324.9,288.9v-28.5h8.8c2.3-0.1,4.6,0.7,6.3,2.2c1.6,1.5,2.5,3.7,2.4,5.9c0,1.6-0.4,3.1-1.2,4.4c-0.8,1.3-1.9,2.2-3.3,2.8
	c-1.9,0.6-4,0.9-6,0.9h-3v12.3H324.9z"/>
<path class="st1" d="M357.3,276.9l-4.5-10.3l-4.1,10.3H357.3z M351.5,260.3h2.8l12.4,28.6h-4.1l-3.7-8.4h-11.8l-3.5,8.4h-4.1
	L351.5,260.3z"/>
<path class="st1" d="M375,263.9h-1.2v9h1.5c1.4,0.1,2.8-0.1,4.1-0.5c0.7-0.3,1.3-0.9,1.7-1.5c0.4-0.7,0.6-1.6,0.6-2.4
	c0-0.9-0.2-1.7-0.7-2.4c-0.5-0.7-1.1-1.3-2-1.5C377.8,264,376.4,263.9,375,263.9 M369.8,288.9v-28.5h7c2.4-0.1,4.8,0.6,6.7,2.1
	c1.7,1.5,2.6,3.6,2.5,5.8c0,1.5-0.4,3-1.3,4.3c-0.8,1.2-2.1,2.2-3.5,2.7c1,0.7,1.9,1.5,2.6,2.5c1.3,1.7,2.5,3.5,3.6,5.4
	c1,1.6,1.7,2.8,2.3,3.7l1.5,2h-4.7l-1.3-1.9l-0.2-0.3l-0.8-1.1l-1.3-2.1l-1.3-2.2c-0.7-1-1.4-1.9-2.3-2.8c-0.5-0.6-1.2-1.1-1.9-1.5
	c-0.9-0.4-1.8-0.5-2.8-0.5h-1v12.4L369.8,288.9z"/>
<polygon class="st1" points="409.9,260.4 414.9,260.4 402.8,273.9 417.8,288.9 412.4,288.9 398.2,274.8 398.2,288.9 394.3,288.9 
	394.3,260.4 398.2,260.4 398.2,273.5 "/>
<path class="st1" d="M440.1,277l-3-1.9c-1.6-0.9-2.9-2.1-4-3.5c-0.8-1.2-1.2-2.6-1.2-4c-0.1-2.1,0.7-4.1,2.3-5.5
	c1.6-1.4,3.7-2.2,5.9-2.1c2.3,0,4.5,0.7,6.3,2v4.6c-1.6-1.8-4-2.9-6.5-3c-1.1,0-2.3,0.3-3.2,0.9c-0.8,0.5-1.3,1.4-1.3,2.4
	c0,0.9,0.3,1.7,0.9,2.4c0.9,0.9,1.9,1.7,3,2.3l3,1.8c3.4,2.1,5.1,4.7,5.1,7.9c0.1,2.1-0.7,4.1-2.2,5.6c-1.6,1.5-3.7,2.2-5.8,2.1
	c-2.7,0-5.3-0.9-7.5-2.5v-5.2c2.1,2.8,4.6,4.2,7.4,4.2c1.1,0,2.2-0.3,3.1-1.1c0.8-0.6,1.3-1.6,1.3-2.7
	C443.8,280.1,442.6,278.4,440.1,277"/>
<path class="st1" d="M465.6,263.9c-5.8-0.2-10.6,4.3-10.9,10c0,0,0,0,0,0c0,0.3,0,0.5,0,0.8c0.1,6,5,10.8,11,10.7
	c2.8,0,5.5-1.2,7.5-3.1c4.2-4.3,4.1-11.2-0.2-15.4c-1.9-1.9-4.4-3-7.1-3.1H465.6 M465.5,260.1c4-0.1,7.8,1.4,10.7,4.2
	c2.8,2.7,4.4,6.5,4.3,10.5c0.1,3.9-1.5,7.7-4.3,10.4c-2.9,2.8-6.8,4.3-10.9,4.1c-3.9,0.1-7.7-1.4-10.4-4.1
	c-2.8-2.7-4.3-6.4-4.2-10.3c-0.1-4,1.4-7.8,4.2-10.6C457.7,261.5,461.5,260,465.5,260.1"/>
<polygon class="st1" points="485.3,260.4 489.3,260.4 489.3,285.2 501.8,285.2 501.8,288.9 485.3,288.9 "/>
<polygon class="st1" points="498.8,260.4 522,260.4 522,264 512.3,264 512.3,288.9 508.3,288.9 508.3,264 498.8,264 "/>
<path class="st1" d="M536.3,276.9l-4.5-10.3l-4.2,10.3H536.3z M530.5,260.3h2.8l12.4,28.6h-4.1l-3.7-8.4h-11.8l-3.5,8.4h-4.1
	L530.5,260.3z"/>
<path class="st1" d="M567.2,260.4h4v16.2c0,1.7-0.1,3.3-0.5,5c-0.3,1-0.6,1.9-1.2,2.8c-0.5,0.7-1,1.4-1.7,2
	c-5.1,3.9-12.2,3.9-17.3,0c-0.7-0.6-1.2-1.3-1.7-2c-0.5-0.8-0.9-1.8-1.1-2.7c-0.4-1.7-0.5-3.4-0.5-5.1v-16.1h4v16.2
	c-0.2,1.9,0.1,3.8,0.8,5.6c0.6,1.1,1.6,2,2.7,2.5c1.3,0.7,2.8,1,4.3,1c2.1,0.1,4.1-0.6,5.8-1.9c0.8-0.7,1.3-1.5,1.7-2.4
	c0.4-1.5,0.6-3.1,0.5-4.8L567.2,260.4z"/>
</svg>
