<?xml version="1.0" encoding="UTF-8"?><svg id="a" xmlns="http://www.w3.org/2000/svg" viewBox="0 0 422.58 308.99"><defs><style>.b{fill:#96a323;}</style></defs><path class="b" d="M422.54,205.51c-82.62,8.49-161.7,22.72-236.75,38.78,1-2.35,1.6-4.86,1.76-7.41,33.99-8.16,77.08-15.64,108.9-21.08,33.97-5.8,82.29-12.54,119.8-16.47,2.33,1.83,4.45,3.91,6.33,6.2"/><path class="b" d="M110.24,265.18c-31.2,8.5-74.76,28-110.24,43.82,.61-2.31,.72-3.8,1.41-6.59,29.48-14.93,59.83-28.07,90.89-39.34,4.03-1.48,12.29-4.04,12.29-4.04,1.72,2.2,3.61,4.25,5.65,6.16"/><path class="b" d="M160.14,0c6.34,4.49,10.92,14.24,13.94,22.05,21.54,55.87,25.34,150.3,14.51,221.66-13.6,3.62-27.67,6.75-41.21,10.44,8.95-28.96,6.34-67.3,6.34-103.29s-7.2-68.35-16.83-92.84c5.82-21.26,9.97-44.65,23.21-58.02"/><path class="b" d="M122.42,40.62c9.06,5.94,16.47,30.41,19.73,43.51,8.72,34.61,8.13,73.3,8.13,116.05,0,20.4-.89,39.74-6.97,55.13-11.24,3.07-21.79,6.83-33.07,9.86-12.82-10.06-13.63-30.98-14.51-51.64-1.81-43.08-1.27-87.74,6.97-123.6,4.02-17.65,10.14-40.55,19.72-49.32"/></svg>